<svg xmlns="http://www.w3.org/2000/svg" version="1.1" xmlns:xlink="http://www.w3.org/1999/xlink" xmlns:svgjs="http://svgjs.dev/svgjs" width="2000" height="1500" viewBox="0 0 2000 1500"><rect width="2000" height="1500" fill="#f9e17e"></rect><g transform="matrix(0.4444444444444444,0,0,0.4444444444444444,555.5555555555557,250)"><svg viewBox="0 0 320 360" data-background-color="#f9e17e" preserveAspectRatio="xMidYMid meet" height="2250" width="2000" xmlns="http://www.w3.org/2000/svg" xmlns:xlink="http://www.w3.org/1999/xlink"><g id="tight-bounds" transform="matrix(1,0,0,1,0,0)"><svg viewBox="0 0 320 360" height="360" width="320"><g><svg></svg></g><g><svg viewBox="0 0 320 360" height="360" width="320"><g><path xmlns="http://www.w3.org/2000/svg" d="M297.491 100.645c-12.426-21.51-112.674-79.355-137.491-79.355-24.817 0-125.028 57.845-137.491 79.355-11.591 20.02-11.591 138.726 0 158.746 12.463 21.474 112.674 79.319 137.491 79.319 24.817 0 125.064-57.845 137.491-79.355 11.591-20.02 11.591-138.69 0-158.71zM309.481 93.705c-14.461-24.998-119.469-86.295-149.481-86.295-30.012 0-135.02 61.297-149.481 86.295-14.025 24.199-14.025 148.391 0 172.59 14.461 24.998 119.469 86.295 149.481 86.295 30.012 0 135.02-61.297 149.481-86.259 14.025-24.235 14.025-148.427 0-172.626zM300.906 261.353c-12.753 22.055-115.472 81.317-140.906 81.318-25.434 0-128.153-59.298-140.906-81.354-11.881-20.529-11.881-142.178 0-162.707 12.753-22.019 115.472-81.281 140.906-81.281 25.434 0 128.153 59.298 140.906 81.318 11.881 20.529 11.881 142.178 0 162.706z" fill="#454545" fill-rule="nonzero" stroke="none" stroke-width="1" stroke-linecap="butt" stroke-linejoin="miter" stroke-miterlimit="10" stroke-dasharray="" stroke-dashoffset="0" font-family="none" font-weight="none" font-size="none" text-anchor="none" style="mix-blend-mode: normal" data-fill-palette-color="tertiary"></path></g><g transform="matrix(1,0,0,1,48,148.87256290597225)"><svg viewBox="0 0 224 62.25487418805549" height="62.25487418805549" width="224"><g><svg viewBox="0 0 317.3943717326522 88.21136910809454" height="62.25487418805549" width="224"><g transform="matrix(1,0,0,1,93.39437173265213,24.906720313909517)"><svg viewBox="0 0 224.00000000000003 38.39792848027551" height="38.39792848027551" width="224.00000000000003"><g id="textblocktransform"><svg viewBox="0 0 224.00000000000003 38.39792848027551" height="38.39792848027551" width="224.00000000000003" id="textblock"><g><svg viewBox="0 0 224.00000000000003 21.95480533623741" height="21.95480533623741" width="224.00000000000003"><g transform="matrix(1,0,0,1,0,0)"><svg width="224.00000000000003" viewBox="2.4000000953674316 -35.5 367.27001953125 36" height="21.95480533623741" data-palette-color="#f9e17e"><path d="M15.2 0.5L15.2 0.5Q11.15 0.5 8.33-0.8 5.5-2.1 4-4.15 2.5-6.2 2.4-8.5L2.4-8.5Q2.4-8.9 2.7-9.2 3-9.5 3.45-9.5L3.45-9.5 4.45-9.5Q4.95-9.5 5.23-9.2 5.5-8.9 5.55-8.5L5.55-8.5Q5.75-7.1 6.8-5.73 7.85-4.35 9.9-3.43 11.95-2.5 15.2-2.5L15.2-2.5Q20.1-2.5 22.35-4.28 24.6-6.05 24.6-9.05L24.6-9.05Q24.6-11.05 23.43-12.28 22.25-13.5 19.85-14.48 17.45-15.45 13.7-16.65L13.7-16.65Q10.15-17.8 7.85-19.03 5.55-20.25 4.48-22 3.4-23.75 3.4-26.5L3.4-26.5Q3.4-29.05 4.75-31.08 6.1-33.1 8.68-34.3 11.25-35.5 14.95-35.5L14.95-35.5Q17.9-35.5 20.1-34.7 22.3-33.9 23.75-32.58 25.2-31.25 25.95-29.73 26.7-28.2 26.75-26.75L26.75-26.75Q26.75-26.4 26.5-26.08 26.25-25.75 25.7-25.75L25.7-25.75 24.7-25.75Q24.45-25.75 24.08-25.95 23.7-26.15 23.6-26.75L23.6-26.75Q23.3-29.25 20.98-30.88 18.65-32.5 14.95-32.5L14.95-32.5Q11.25-32.5 8.9-31.05 6.55-29.6 6.55-26.5L6.55-26.5Q6.55-24.5 7.6-23.23 8.65-21.95 10.9-20.98 13.15-20 16.7-18.85L16.7-18.85Q20.45-17.65 22.9-16.45 25.35-15.25 26.55-13.53 27.75-11.8 27.75-9.05L27.75-9.05Q27.75-6 26.23-3.88 24.7-1.75 21.9-0.63 19.1 0.5 15.2 0.5ZM36.95 0L36.05 0Q35.55 0 35.25-0.3 34.95-0.6 34.95-1.1L34.95-1.1 34.95-33.85Q34.95-34.4 35.25-34.7 35.55-35 36.05-35L36.05-35 36.95-35Q37.5-35 37.8-34.7 38.1-34.4 38.1-33.85L38.1-33.85 38.1-19.25 57.4-19.25 57.4-33.85Q57.4-34.4 57.7-34.7 58-35 58.5-35L58.5-35 59.4-35Q59.95-35 60.25-34.7 60.55-34.4 60.55-33.85L60.55-33.85 60.55-1.1Q60.55-0.6 60.25-0.3 59.95 0 59.4 0L59.4 0 58.5 0Q58 0 57.7-0.3 57.4-0.6 57.4-1.1L57.4-1.1 57.4-16.25 38.1-16.25 38.1-1.1Q38.1-0.6 37.8-0.3 37.5 0 36.95 0L36.95 0ZM72 0L71.05 0Q70.55 0 70.25-0.3 69.95-0.6 69.95-1.1L69.95-1.1 69.95-33.9Q69.95-34.4 70.25-34.7 70.55-35 71.05-35L71.05-35 72-35Q72.5-35 72.8-34.7 73.09-34.4 73.09-33.9L73.09-33.9 73.09-1.1Q73.09-0.6 72.8-0.3 72.5 0 72 0L72 0ZM84.49 0L83.59 0Q83.09 0 82.79-0.3 82.49-0.6 82.49-1.1L82.49-1.1 82.49-33.85Q82.49-34.4 82.79-34.7 83.09-35 83.59-35L83.59-35 95.24-35Q100.49-35 103.62-32.5 106.74-30 106.74-24.9L106.74-24.9Q106.74-20.9 104.74-18.5 102.74-16.1 99.19-15.25L99.19-15.25 107.24-1.55Q107.39-1.25 107.39-1L107.39-1Q107.39-0.6 107.09-0.3 106.79 0 106.39 0L106.39 0 105.79 0Q104.99 0 104.59-0.43 104.19-0.85 103.89-1.35L103.89-1.35 95.94-14.8 85.64-14.8 85.64-1.1Q85.64-0.6 85.34-0.3 85.04 0 84.49 0L84.49 0ZM85.64-32L85.64-17.8 94.99-17.8Q99.34-17.8 101.47-19.58 103.59-21.35 103.59-24.9L103.59-24.9Q103.59-28.45 101.47-30.23 99.34-32 94.99-32L94.99-32 85.64-32ZM124.14 0L123.24 0Q122.74 0 122.44-0.3 122.14-0.6 122.14-1.1L122.14-1.1 122.14-32 112.24-32Q111.74-32 111.44-32.3 111.14-32.6 111.14-33.1L111.14-33.1 111.14-33.85Q111.14-34.4 111.44-34.7 111.74-35 112.24-35L112.24-35 135.14-35Q135.69-35 135.99-34.7 136.29-34.4 136.29-33.85L136.29-33.85 136.29-33.1Q136.29-32.6 135.99-32.3 135.69-32 135.14-32L135.14-32 125.29-32 125.29-1.1Q125.29-0.6 124.99-0.3 124.69 0 124.14 0L124.14 0ZM154.29 0L152.89 0Q152.24 0 151.84-0.3 151.44-0.6 151.19-1.2L151.19-1.2 139.59-33.45Q139.49-33.75 139.49-34L139.49-34Q139.49-34.4 139.79-34.7 140.09-35 140.49-35L140.49-35 141.54-35Q142.04-35 142.31-34.73 142.59-34.45 142.64-34.25L142.64-34.25 153.59-3.65 164.54-34.25Q164.64-34.45 164.89-34.73 165.14-35 165.64-35L165.64-35 166.69-35Q167.09-35 167.39-34.7 167.69-34.4 167.69-34L167.69-34Q167.69-33.75 167.59-33.45L167.59-33.45 155.99-1.2Q155.79-0.6 155.39-0.3 154.99 0 154.29 0L154.29 0ZM176.29 0L175.34 0Q174.84 0 174.54-0.3 174.24-0.6 174.24-1.1L174.24-1.1 174.24-33.9Q174.24-34.4 174.54-34.7 174.84-35 175.34-35L175.34-35 176.29-35Q176.79-35 177.09-34.7 177.39-34.4 177.39-33.9L177.39-33.9 177.39-1.1Q177.39-0.6 177.09-0.3 176.79 0 176.29 0L176.29 0ZM188.78 0L187.88 0Q187.38 0 187.08-0.3 186.78-0.6 186.78-1.1L186.78-1.1 186.78-33.85Q186.78-34.4 187.08-34.7 187.38-35 187.88-35L187.88-35 199.53-35Q204.78-35 207.91-32.5 211.03-30 211.03-24.9L211.03-24.9Q211.03-20.9 209.03-18.5 207.03-16.1 203.48-15.25L203.48-15.25 211.53-1.55Q211.68-1.25 211.68-1L211.68-1Q211.68-0.6 211.38-0.3 211.08 0 210.68 0L210.68 0 210.08 0Q209.28 0 208.88-0.43 208.48-0.85 208.18-1.35L208.18-1.35 200.23-14.8 189.93-14.8 189.93-1.1Q189.93-0.6 189.63-0.3 189.33 0 188.78 0L188.78 0ZM189.93-32L189.93-17.8 199.28-17.8Q203.63-17.8 205.76-19.58 207.88-21.35 207.88-24.9L207.88-24.9Q207.88-28.45 205.76-30.23 203.63-32 199.28-32L199.28-32 189.93-32ZM228.43 0L227.53 0Q227.03 0 226.73-0.3 226.43-0.6 226.43-1.1L226.43-1.1 226.43-32 216.53-32Q216.03-32 215.73-32.3 215.43-32.6 215.43-33.1L215.43-33.1 215.43-33.85Q215.43-34.4 215.73-34.7 216.03-35 216.53-35L216.53-35 239.43-35Q239.98-35 240.28-34.7 240.58-34.4 240.58-33.85L240.58-33.85 240.58-33.1Q240.58-32.6 240.28-32.3 239.98-32 239.43-32L239.43-32 229.58-32 229.58-1.1Q229.58-0.6 229.28-0.3 228.98 0 228.43 0L228.43 0ZM259.23 0.5L259.23 0.5Q255.18 0.5 252.3-1 249.43-2.5 247.88-5.6 246.33-8.7 246.33-13.55L246.33-13.55 246.33-33.85Q246.33-34.4 246.63-34.7 246.93-35 247.43-35L247.43-35 248.33-35Q248.88-35 249.18-34.7 249.48-34.4 249.48-33.85L249.48-33.85 249.48-13.4Q249.48-7.8 252.1-5.15 254.73-2.5 259.23-2.5L259.23-2.5Q263.68-2.5 266.3-5.15 268.93-7.8 268.93-13.4L268.93-13.4 268.93-33.85Q268.93-34.4 269.25-34.7 269.58-35 270.08-35L270.08-35 270.98-35Q271.48-35 271.78-34.7 272.08-34.4 272.08-33.85L272.08-33.85 272.08-13.55Q272.08-8.7 270.55-5.6 269.03-2.5 266.18-1 263.33 0.5 259.23 0.5ZM293.03 0.5L293.03 0.5Q288.88 0.5 285.98-0.98 283.08-2.45 281.53-5.53 279.98-8.6 279.83-13.3L279.83-13.3Q279.78-15.55 279.78-17.5 279.78-19.45 279.83-21.7L279.83-21.7Q279.98-26.35 281.63-29.43 283.28-32.5 286.2-34 289.13-35.5 293.03-35.5L293.03-35.5Q296.93-35.5 299.85-34 302.78-32.5 304.45-29.43 306.13-26.35 306.23-21.7L306.23-21.7Q306.33-19.45 306.33-17.5 306.33-15.55 306.23-13.3L306.23-13.3Q306.13-8.6 304.55-5.53 302.98-2.45 300.08-0.98 297.18 0.5 293.03 0.5ZM293.03-2.5L293.03-2.5Q297.33-2.5 300.1-5.1 302.88-7.7 303.08-13.55L303.08-13.55Q303.18-15.8 303.18-17.5 303.18-19.2 303.08-21.45L303.08-21.45Q302.98-25.35 301.65-27.8 300.33-30.25 298.1-31.38 295.88-32.5 293.03-32.5L293.03-32.5Q290.23-32.5 288-31.38 285.78-30.25 284.45-27.8 283.13-25.35 282.98-21.45L282.98-21.45Q282.93-19.2 282.93-17.5 282.93-15.8 282.98-13.55L282.98-13.55Q283.18-7.7 285.98-5.1 288.78-2.5 293.03-2.5ZM324.77 0.5L324.77 0.5Q320.72 0.5 317.9-0.8 315.07-2.1 313.57-4.15 312.07-6.2 311.97-8.5L311.97-8.5Q311.97-8.9 312.27-9.2 312.57-9.5 313.02-9.5L313.02-9.5 314.02-9.5Q314.52-9.5 314.8-9.2 315.07-8.9 315.12-8.5L315.12-8.5Q315.32-7.1 316.37-5.73 317.42-4.35 319.47-3.43 321.52-2.5 324.77-2.5L324.77-2.5Q329.67-2.5 331.92-4.28 334.17-6.05 334.17-9.05L334.17-9.05Q334.17-11.05 333-12.28 331.82-13.5 329.42-14.48 327.02-15.45 323.27-16.65L323.27-16.65Q319.72-17.8 317.42-19.03 315.12-20.25 314.05-22 312.97-23.75 312.97-26.5L312.97-26.5Q312.97-29.05 314.32-31.08 315.67-33.1 318.25-34.3 320.82-35.5 324.52-35.5L324.52-35.5Q327.47-35.5 329.67-34.7 331.87-33.9 333.32-32.58 334.77-31.25 335.52-29.73 336.27-28.2 336.32-26.75L336.32-26.75Q336.32-26.4 336.07-26.08 335.82-25.75 335.27-25.75L335.27-25.75 334.27-25.75Q334.02-25.75 333.65-25.95 333.27-26.15 333.17-26.75L333.17-26.75Q332.87-29.25 330.55-30.88 328.22-32.5 324.52-32.5L324.52-32.5Q320.82-32.5 318.47-31.05 316.12-29.6 316.12-26.5L316.12-26.5Q316.12-24.5 317.17-23.23 318.22-21.95 320.47-20.98 322.72-20 326.27-18.85L326.27-18.85Q330.02-17.65 332.47-16.45 334.92-15.25 336.12-13.53 337.32-11.8 337.32-9.05L337.32-9.05Q337.32-6 335.8-3.88 334.27-1.75 331.47-0.63 328.67 0.5 324.77 0.5ZM356.37 0.5L356.37 0.5Q352.22 0.5 349.32-0.98 346.42-2.45 344.87-5.53 343.32-8.6 343.17-13.3L343.17-13.3Q343.12-15.55 343.12-17.5 343.12-19.45 343.17-21.7L343.17-21.7Q343.32-26.35 344.97-29.43 346.62-32.5 349.55-34 352.47-35.5 356.37-35.5L356.37-35.5Q360.27-35.5 363.2-34 366.12-32.5 367.8-29.43 369.47-26.35 369.57-21.7L369.57-21.7Q369.67-19.45 369.67-17.5 369.67-15.55 369.57-13.3L369.57-13.3Q369.47-8.6 367.9-5.53 366.32-2.45 363.42-0.98 360.52 0.5 356.37 0.5ZM356.37-2.5L356.37-2.5Q360.67-2.5 363.45-5.1 366.22-7.7 366.42-13.55L366.42-13.55Q366.52-15.8 366.52-17.5 366.52-19.2 366.42-21.45L366.42-21.45Q366.32-25.35 365-27.8 363.67-30.25 361.45-31.38 359.22-32.5 356.37-32.5L356.37-32.5Q353.57-32.5 351.35-31.38 349.12-30.25 347.8-27.8 346.47-25.35 346.32-21.45L346.32-21.45Q346.27-19.2 346.27-17.5 346.27-15.8 346.32-13.55L346.32-13.55Q346.52-7.7 349.32-5.1 352.12-2.5 356.37-2.5Z" opacity="1" transform="matrix(1,0,0,1,0,0)" fill="#f9e17e" class="wordmark-text-0" data-fill-palette-color="quaternary" id="text-0"></path></svg></g></svg></g><g transform="matrix(1,0,0,1,0,27.137807960794994)"><svg viewBox="0 0 131.5104 11.26012051948052" height="11.26012051948052" width="131.5104"><g transform="matrix(1,0,0,1,0,0)"><svg width="131.5104" viewBox="1.9000000953674316 -33.939998626708984 526.3099975585938 45.06999969482422" height="11.26012051948052" data-palette-color="#f9e17e"><path d="M1.9-26.61L2.05-28.66 13.28-28.66 13.38-26.61 10.35-25.88Q10.35-25.59 10.3-24.78 10.25-23.97 10.23-22.49 10.21-21 10.21-18.55L10.21-18.55 10.21-11.87Q10.21-8.84 11.11-6.93 12.01-5.03 13.67-4.13 15.33-3.22 17.58-3.22L17.58-3.22Q19.73-3.22 21.29-4.13 22.85-5.03 23.68-7.01 24.51-8.98 24.51-12.11L24.51-12.11 24.51-17.68Q24.51-20.02 24.46-21.78 24.41-23.54 24.37-24.58 24.32-25.63 24.22-25.88L24.22-25.88 20.8-26.61 20.95-28.66 30.86-28.66 31.01-26.61 27.98-25.88Q27.93-25.73 27.91-24.83 27.88-23.93 27.83-22.17 27.78-20.41 27.78-17.68L27.78-17.68 27.78-11.67Q27.78-7.62 26.42-4.93 25.05-2.25 22.58-0.9 20.12 0.44 16.94 0.44L16.94 0.44Q11.33 0.44 8.25-2.59 5.18-5.62 5.18-11.18L5.18-11.18 5.18-18.55Q5.18-21.04 5.13-22.61 5.08-24.17 5.05-24.95 5.03-25.73 4.98-25.88L4.98-25.88 1.9-26.61ZM45.07 0L34.23 0 34.08-1.9 37.11-2.69Q37.16-2.93 37.2-3.54 37.25-4.15 37.28-5.18 37.3-6.2 37.3-7.76L37.3-7.76 37.35-11.52Q37.35-13.13 37.25-14.58 37.16-16.02 36.96-16.99L36.96-16.99 33.84-17.68 33.84-19.48 41.06-21.44 42.09-20.65 41.79-17.97 41.94-17.92Q43.6-19.78 45.31-20.65 47.02-21.53 48.97-21.53L48.97-21.53Q50.88-21.53 52.49-20.58 54.1-19.63 55.1-17.72 56.1-15.82 56.1-12.94L56.1-12.94 56.1-7.71Q56.1-6.01 56.17-4.57 56.25-3.13 56.35-2.69L56.35-2.69 59.37-1.9 59.27 0 48.63 0 48.48-1.9 51.32-2.69Q51.41-3.08 51.46-3.74 51.51-4.39 51.54-5.35 51.56-6.3 51.56-7.47L51.56-7.47 51.56-12.35Q51.56-14.4 50.88-15.65 50.19-16.89 49.14-17.46 48.09-18.02 46.92-18.02L46.92-18.02Q45.41-18.02 44.14-17.31 42.87-16.6 41.94-15.33L41.94-15.33 41.94-8.01Q41.94-5.96 42.01-4.54 42.09-3.13 42.19-2.69L42.19-2.69 45.21-1.9 45.07 0ZM72.75 0L61.52 0 61.37-1.95 64.55-2.69Q64.64-3.17 64.69-4.35 64.74-5.52 64.77-7.37 64.79-9.23 64.79-11.57L64.79-11.57 64.79-17.72Q64.79-19.48 64.77-21.34 64.74-23.19 64.72-24.88 64.69-26.56 64.67-27.81 64.64-29.05 64.59-29.59L64.59-29.59 60.98-30.08 60.88-31.79 68.65-33.94 69.72-33.2Q69.67-31.15 69.6-29.15 69.53-27.15 69.5-24.66 69.48-22.17 69.48-18.7L69.48-18.7 69.43-11.04Q69.43-7.96 69.5-5.59 69.58-3.22 69.67-2.69L69.67-2.69 72.85-1.95 72.75 0ZM86.13 0.39L86.13 0.39Q83.2 0.39 80.85-0.93 78.51-2.25 77.14-4.64 75.77-7.03 75.77-10.21L75.77-10.21Q75.77-13.67 77.24-16.21 78.7-18.75 81.07-20.17 83.44-21.58 86.17-21.53L86.17-21.53Q90.18-21.48 92.38-18.92 94.57-16.36 94.57-11.96L94.57-11.96 94.57-10.99 79.83-10.99 79.83-13.28 90.86-13.28 90.23-12.45 90.23-13.72Q90.23-16.31 89.06-17.8 87.88-19.29 85.78-19.29L85.78-19.29Q84.47-19.29 83.29-18.51 82.12-17.72 81.39-16.16 80.66-14.6 80.66-12.26L80.66-12.26 80.66-11.52Q80.66-7.71 82.61-5.52 84.56-3.32 87.69-3.32L87.69-3.32Q89.35-3.32 90.72-3.96 92.08-4.59 93.35-6.15L93.35-6.15 94.67-4.93Q93.3-2.25 91.08-0.93 88.86 0.39 86.13 0.39ZM105.61 0.39L105.61 0.39Q103.55 0.39 101.99-0.46 100.43-1.32 99.6-2.59 98.77-3.86 98.77-5.13L98.77-5.13Q98.77-6.79 99.82-7.89 100.87-8.98 103.31-9.77L103.31-9.77 110.83-12.21 110.83-14.45Q110.83-15.58 110.12-16.55 109.41-17.53 108.24-18.12 107.07-18.7 105.61-18.7L105.61-18.7Q104.58-18.7 104.16-18.24 103.75-17.77 103.65-16.41L103.65-16.41 103.51-14.06Q101.55-13.62 100.21-14.18 98.87-14.75 98.87-16.06L98.87-16.06Q98.87-16.89 99.67-17.77 100.48-18.65 101.72-19.46 102.97-20.26 104.38-20.8 105.8-21.34 107.07-21.53L107.07-21.53Q110.88-21.53 113.2-19.6 115.52-17.68 115.57-14.5L115.57-14.5 115.42-6.79Q115.42-5.71 115.49-4.86 115.57-4 115.76-3.56L115.76-3.56 118.89-2.98 118.89-1.32 116.25-0.24Q115.52 0.05 114.88 0.22 114.25 0.39 113.76 0.39L113.76 0.39Q112.1 0.39 111.56-1.37L111.56-1.37 110.93-3.42 111.76-3.32Q110.2-1.51 108.66-0.56 107.12 0.39 105.61 0.39ZM107.31-2.98L107.31-2.98Q108.29-2.98 109.17-3.42 110.05-3.86 110.83-4.74L110.83-4.74 110.83-9.77 106.04-8.59Q104.87-8.3 104.36-7.69 103.85-7.08 103.85-6.1L103.85-6.1Q103.85-4.88 104.87-3.93 105.9-2.98 107.31-2.98ZM129.19 0.39L129.19 0.39Q127.33 0.39 125.45-0.05 123.57-0.49 122.25-1.17L122.25-1.17 122.01-6.59 124.65-6.59 125.62-3.08Q127.33-1.9 129.53-1.9L129.53-1.9Q131.14-1.9 132.09-2.66 133.04-3.42 133.04-4.64L133.04-4.64Q133.04-5.86 132.14-6.76 131.24-7.67 128.55-8.74L128.55-8.74Q125.04-10.16 123.62-11.62 122.2-13.09 122.2-15.33L122.2-15.33Q122.2-17.14 123.33-18.53 124.45-19.92 126.4-20.73 128.36-21.53 130.94-21.53L130.94-21.53Q132.36-21.53 133.83-21.29 135.29-21.04 136.32-20.61L136.32-20.61 136.85-15.33 134.31-15.33 133.14-18.65Q132.65-18.95 131.97-19.12 131.29-19.29 130.55-19.29L130.55-19.29Q128.89-19.29 127.89-18.53 126.89-17.77 126.89-16.6L126.89-16.6Q126.89-15.28 128.01-14.4 129.14-13.53 131.97-12.26L131.97-12.26Q135.19-10.84 136.51-9.4 137.83-7.96 137.83-5.86L137.83-5.86Q137.83-3.13 135.41-1.37 133 0.39 129.19 0.39ZM151.6 0L140.76 0 140.61-1.9 143.64-2.69Q143.74-3.17 143.78-4.35 143.83-5.52 143.86-7.37 143.88-9.23 143.88-11.57L143.88-11.57 143.88-17.68Q143.88-19.34 143.86-21.17 143.83-23 143.81-24.71 143.78-26.42 143.76-27.73 143.74-29.05 143.69-29.59L143.69-29.59 140.07-30.08 139.98-31.79 147.64-33.94 148.72-33.2Q148.67-31.69 148.59-30.22 148.52-28.76 148.5-27.03 148.47-25.29 148.45-23.12 148.42-20.95 148.37-18.02L148.37-18.02 148.52-17.97Q150.13-19.82 151.84-20.68 153.55-21.53 155.5-21.53L155.5-21.53Q157.41-21.53 159.02-20.58 160.63-19.63 161.63-17.7 162.63-15.77 162.63-12.89L162.63-12.89 162.63-7.71Q162.63-6.01 162.7-4.59 162.78-3.17 162.88-2.69L162.88-2.69 165.9-1.9 165.81 0 155.21 0 155.06-1.9 157.85-2.69Q157.94-3.08 157.99-3.74 158.04-4.39 158.07-5.35 158.09-6.3 158.09-7.47L158.09-7.47 158.09-12.35Q158.09-14.36 157.43-15.6 156.77-16.85 155.72-17.43 154.67-18.02 153.45-18.02L153.45-18.02Q151.99-18.02 150.69-17.31 149.4-16.6 148.47-15.33L148.47-15.33 148.47-8.01Q148.47-5.96 148.54-4.52 148.62-3.08 148.72-2.69L148.72-2.69 151.69-1.9 151.6 0ZM190.02-4.54L187.14 0.2 178.4-18.46 176.1-19.19 176.25-21.14 186.65-21.14 186.8-19.19 183.77-18.46 190.02-4.54ZM191.68-21.14L199.98-21.14 200.08-19.19 197.78-18.46 189.43-1.22 185.58 6.88Q184.4 9.28 183.18 10.21 181.96 11.13 180.4 11.13L180.4 11.13Q179.03 11.13 178.18 10.47 177.32 9.81 177.32 8.84L177.32 8.84Q177.32 7.96 178.01 7.25 178.69 6.54 180.11 6.1L180.11 6.1 185.04 4.69 182.45 7.03 188.02-3.56 188.6-4.54 194.56-18.46 191.53-19.19 191.68-21.14ZM211.94 0.39L211.94 0.39Q208.72 0.39 206.25-1 203.79-2.39 202.42-4.86 201.05-7.32 201.05-10.5L201.05-10.5Q201.05-13.87 202.59-16.33 204.13-18.8 206.64-20.17 209.16-21.53 212.14-21.53L212.14-21.53Q215.21-21.53 217.53-20.17 219.85-18.8 221.17-16.38 222.49-13.96 222.49-10.79L222.49-10.79Q222.49-7.67 221.07-5.13 219.66-2.59 217.26-1.1 214.87 0.39 211.94 0.39ZM212.43-2.15L212.43-2.15Q213.94-2.15 215.04-3.08 216.14-4 216.75-5.71 217.36-7.42 217.36-9.62L217.36-9.62Q217.36-13.87 215.75-16.48 214.14-19.09 211.5-19.09L211.5-19.09Q209.16-19.09 207.72-16.99 206.28-14.89 206.28-11.43L206.28-11.43Q206.28-8.74 207.06-6.64 207.84-4.54 209.25-3.34 210.67-2.15 212.43-2.15ZM247.34-3.76L247.34-3.76 250.51-2.98 250.51-1.22 243.48 0.54 242.6-0.1 242.65-3.27 242.5-3.32Q241.04-1.22 239.5-0.42 237.96 0.39 236.25 0.39L236.25 0.39Q232.93 0.39 230.74-1.68 228.54-3.76 228.54-7.91L228.54-7.91 228.54-12.11Q228.54-13.28 228.47-14.5 228.39-15.72 228.3-16.99L228.3-16.99 224.98-17.68 224.98-19.48 232.35-21.44 233.37-20.65Q233.28-19.14 233.2-17.31 233.13-15.48 233.13-13.53L233.13-13.53 233.13-8.59Q233.13-5.71 234.45-4.47 235.77-3.22 237.87-3.22L237.87-3.22Q239.04-3.22 240.31-3.86 241.58-4.49 242.5-6.01L242.5-6.01 242.5-11.47Q242.5-12.5 242.48-13.48 242.46-14.45 242.38-15.36 242.31-16.26 242.21-16.99L242.21-16.99 238.65-17.68 238.65-19.48 246.26-21.44 247.19-20.7Q247.14-19.48 247.12-18.41 247.09-17.33 247.07-16.21 247.05-15.09 247.05-13.67L247.05-13.67 247.05-10.06Q247.05-7.86 247.14-6.27 247.24-4.69 247.34-3.76ZM264.96 0L252.8 0 252.66-1.9 255.69-2.69Q255.73-2.88 255.78-3.52 255.83-4.15 255.88-5.22 255.93-6.3 255.93-7.76L255.93-7.76 255.93-11.52Q255.93-13.13 255.83-14.58 255.73-16.02 255.54-16.99L255.54-16.99 252.41-17.68 252.41-19.48 259.59-21.44 260.47-20.7 260.28-16.7 260.42-16.65Q261.89-19.43 263.35-20.41 264.82-21.39 266.23-21.39L266.23-21.39Q267.45-21.39 268.28-20.78 269.11-20.17 269.11-18.9L269.11-18.9Q269.11-17.63 268.21-16.94 267.31-16.26 266.04-16.26L266.04-16.26Q265.06-16.26 264.21-16.63 263.35-16.99 262.52-17.82L262.52-17.82 263.5-17.58Q262.72-16.99 261.91-16.02 261.11-15.04 260.47-13.67L260.47-13.67 260.52-9.33Q260.57-7.91 260.62-6.57 260.67-5.22 260.71-4.2 260.76-3.17 260.81-2.69L260.81-2.69 265.06-2 264.96 0ZM291.86 0L280.49 0 280.34-1.95 283.61-2.69Q283.66-2.88 283.71-3.44 283.76-4 283.78-5.05 283.81-6.1 283.81-7.76L283.81-7.76 283.85-11.23Q283.85-13.04 283.76-14.53 283.66-16.02 283.46-16.99L283.46-16.99 280.19-17.68 280.19-19.48 287.81-21.44 288.74-20.7Q288.59-19.19 288.52-17.68 288.44-16.16 288.44-14.16L288.44-14.16 288.44-8.01Q288.44-6.01 288.52-4.54 288.59-3.08 288.74-2.69L288.74-2.69 292.01-1.95 291.86 0ZM286.2-26.46L286.2-26.46Q284.73-26.46 283.78-27.39 282.83-28.32 282.83-29.69L282.83-29.69Q282.83-31.01 283.78-31.96 284.73-32.91 286.2-32.91L286.2-32.91Q287.66-32.91 288.57-31.96 289.47-31.01 289.47-29.69L289.47-29.69Q289.47-28.32 288.57-27.39 287.66-26.46 286.2-26.46ZM304.9 0L294.25 0 294.11-1.9 297.13-2.69Q297.18-2.93 297.23-3.52 297.28-4.1 297.3-5.15 297.33-6.2 297.33-7.76L297.33-7.76 297.38-11.52Q297.43-12.55 297.38-13.55 297.33-14.55 297.23-15.45 297.13-16.36 296.99-16.99L296.99-16.99 293.86-17.68 293.86-19.48 301.09-21.44 302.11-20.65 301.82-17.92 301.97-17.87Q303.53-19.82 305.17-20.68 306.8-21.53 308.56-21.53L308.56-21.53Q310.32-21.53 311.95-20.58 313.59-19.63 314.64-17.72 315.69-15.82 315.69-12.84L315.69-12.84 315.74-7.71Q315.74-6.01 315.81-4.59 315.88-3.17 315.98-2.69L315.98-2.69 318.86-1.9 318.72 0 308.46 0 308.36-1.9 310.95-2.69Q311.05-3.08 311.1-3.74 311.15-4.39 311.17-5.35 311.2-6.3 311.2-7.47L311.2-7.47 311.15-12.6Q311.15-14.55 310.54-15.75 309.93-16.94 308.92-17.48 307.92-18.02 306.75-18.02L306.75-18.02Q305.38-18.02 304.14-17.36 302.89-16.7 301.97-15.33L301.97-15.33 301.97-8.01Q301.97-6.01 302.04-4.57 302.11-3.13 302.21-2.69L302.21-2.69 305.04-1.9 304.9 0ZM332.58 0L322.13 0 321.99-1.9 324.67-2.69Q324.77-3.08 324.82-3.74 324.87-4.39 324.89-5.35 324.92-6.3 324.92-7.47L324.92-7.47 324.92-12.4Q324.92-14.45 324.23-15.67 323.55-16.89 322.5-17.46 321.45-18.02 320.33-18.02L320.33-18.02Q318.81-18.02 317.49-17.31 316.18-16.6 315.2-15.09L315.2-15.09 314.13-16.94Q315.83-19.29 317.76-20.41 319.69-21.53 321.94-21.53L321.94-21.53Q324.09-21.53 325.77-20.51 327.46-19.48 328.43-17.6 329.41-15.72 329.41-13.09L329.41-13.09 329.41-7.71Q329.41-6.01 329.48-4.59 329.55-3.17 329.7-2.69L329.7-2.69 332.73-1.9 332.58 0ZM343.08 0.39L343.08 0.39Q341.03 0.39 339.46-0.46 337.9-1.32 337.07-2.59 336.24-3.86 336.24-5.13L336.24-5.13Q336.24-6.79 337.29-7.89 338.34-8.98 340.78-9.77L340.78-9.77 348.3-12.21 348.3-14.45Q348.3-15.58 347.59-16.55 346.89-17.53 345.71-18.12 344.54-18.7 343.08-18.7L343.08-18.7Q342.05-18.7 341.64-18.24 341.22-17.77 341.12-16.41L341.12-16.41 340.98-14.06Q339.03-13.62 337.68-14.18 336.34-14.75 336.34-16.06L336.34-16.06Q336.34-16.89 337.15-17.77 337.95-18.65 339.2-19.46 340.44-20.26 341.86-20.8 343.27-21.34 344.54-21.53L344.54-21.53Q348.35-21.53 350.67-19.6 352.99-17.68 353.04-14.5L353.04-14.5 352.89-6.79Q352.89-5.71 352.97-4.86 353.04-4 353.23-3.56L353.23-3.56 356.36-2.98 356.36-1.32 353.72-0.24Q352.99 0.05 352.36 0.22 351.72 0.39 351.23 0.39L351.23 0.39Q349.57 0.39 349.03-1.37L349.03-1.37 348.4-3.42 349.23-3.32Q347.67-1.51 346.13-0.56 344.59 0.39 343.08 0.39ZM344.79-2.98L344.79-2.98Q345.76-2.98 346.64-3.42 347.52-3.86 348.3-4.74L348.3-4.74 348.3-9.77 343.52-8.59Q342.35-8.3 341.83-7.69 341.32-7.08 341.32-6.1L341.32-6.1Q341.32-4.88 342.35-3.93 343.37-2.98 344.79-2.98ZM368.56 11.13L368.56 11.13Q363.88 11.13 361.17 9.67 358.46 8.2 358.46 5.81L358.46 5.81Q358.46 4.1 359.87 2.71 361.29 1.32 364.27 0.05L364.27 0.05 366.22 0.39Q364.75 1.32 363.92 2.49 363.09 3.66 363.09 5.03L363.09 5.03Q363.09 6.84 364.63 7.86 366.17 8.89 368.86 8.89L368.86 8.89Q371.88 8.89 373.79 7.59 375.69 6.3 375.69 4.3L375.69 4.3Q375.69 2.78 374.59 2.03 373.5 1.27 370.86 1.07L370.86 1.07 365.39 0.63 364.75 0.39Q362.75 0.39 361.46-0.54 360.17-1.46 360.17-2.93L360.17-2.93Q360.17-4.3 361.51-5.59 362.85-6.88 365.29-7.81L365.29-7.81 365.98-6.84Q365.15-6.3 364.73-5.83 364.32-5.37 364.32-4.93L364.32-4.93Q364.32-4.25 364.85-3.83 365.39-3.42 366.37-3.32L366.37-3.32 373.01-2.69Q376.52-2.34 378.28-0.9 380.04 0.54 380.04 3.13L380.04 3.13Q380.04 5.32 378.52 7.15 377.01 8.98 374.42 10.06 371.84 11.13 368.56 11.13ZM368.91-5.96L368.91-5.96Q366.22-5.96 364.14-6.91 362.07-7.86 360.9-9.55 359.73-11.23 359.73-13.43L359.73-13.43Q359.73-15.77 360.95-17.58 362.17-19.38 364.24-20.46 366.32-21.53 368.95-21.53L368.95-21.53Q371.54-21.53 373.57-20.51 375.59-19.48 376.77-17.72 377.94-15.97 377.94-13.72L377.94-13.72Q377.94-11.47 376.77-9.72 375.59-7.96 373.54-6.96 371.49-5.96 368.91-5.96ZM369.25-8.2L369.25-8.2Q371.05-8.2 372.13-9.62 373.2-11.04 373.2-13.43L373.2-13.43Q373.2-16.11 372.01-17.72 370.81-19.34 368.91-19.34L368.91-19.34Q367.05-19.34 365.9-17.82 364.75-16.31 364.75-13.87L364.75-13.87Q364.75-11.33 365.98-9.77 367.2-8.2 369.25-8.2ZM380.82-21.04L380.82-17.68 374.72-18.16 372.86-20.21 380.82-21.04ZM394.1 0L382.72 0 382.57-1.95 385.85-2.69Q385.9-2.88 385.94-3.44 385.99-4 386.02-5.05 386.04-6.1 386.04-7.76L386.04-7.76 386.09-11.23Q386.09-13.04 385.99-14.53 385.9-16.02 385.7-16.99L385.7-16.99 382.43-17.68 382.43-19.48 390.05-21.44 390.97-20.7Q390.83-19.19 390.75-17.68 390.68-16.16 390.68-14.16L390.68-14.16 390.68-8.01Q390.68-6.01 390.75-4.54 390.83-3.08 390.97-2.69L390.97-2.69 394.24-1.95 394.1 0ZM388.43-26.46L388.43-26.46Q386.97-26.46 386.02-27.39 385.06-28.32 385.06-29.69L385.06-29.69Q385.06-31.01 386.02-31.96 386.97-32.91 388.43-32.91L388.43-32.91Q389.9-32.91 390.8-31.96 391.71-31.01 391.71-29.69L391.71-29.69Q391.71-28.32 390.8-27.39 389.9-26.46 388.43-26.46ZM407.28 0L396.44 0 396.29-1.9 399.32-2.69Q399.37-2.93 399.42-3.54 399.47-4.15 399.49-5.18 399.52-6.2 399.52-7.76L399.52-7.76 399.56-11.52Q399.56-13.13 399.47-14.58 399.37-16.02 399.17-16.99L399.17-16.99 396.05-17.68 396.05-19.48 403.28-21.44 404.3-20.65 404.01-17.97 404.15-17.92Q405.81-19.78 407.52-20.65 409.23-21.53 411.19-21.53L411.19-21.53Q413.09-21.53 414.7-20.58 416.31-19.63 417.31-17.72 418.31-15.82 418.31-12.94L418.31-12.94 418.31-7.71Q418.31-6.01 418.39-4.57 418.46-3.13 418.56-2.69L418.56-2.69 421.59-1.9 421.49 0 410.84 0 410.7-1.9 413.53-2.69Q413.63-3.08 413.68-3.74 413.72-4.39 413.75-5.35 413.77-6.3 413.77-7.47L413.77-7.47 413.77-12.35Q413.77-14.4 413.09-15.65 412.41-16.89 411.36-17.46 410.31-18.02 409.13-18.02L409.13-18.02Q407.62-18.02 406.35-17.31 405.08-16.6 404.15-15.33L404.15-15.33 404.15-8.01Q404.15-5.96 404.23-4.54 404.3-3.13 404.4-2.69L404.4-2.69 407.43-1.9 407.28 0ZM431.93 0.39L431.93 0.39Q429.88 0.39 428.32-0.46 426.76-1.32 425.93-2.59 425.1-3.86 425.1-5.13L425.1-5.13Q425.1-6.79 426.15-7.89 427.2-8.98 429.64-9.77L429.64-9.77 437.16-12.21 437.16-14.45Q437.16-15.58 436.45-16.55 435.74-17.53 434.57-18.12 433.4-18.7 431.93-18.7L431.93-18.7Q430.91-18.7 430.49-18.24 430.08-17.77 429.98-16.41L429.98-16.41 429.84-14.06Q427.88-13.62 426.54-14.18 425.2-14.75 425.2-16.06L425.2-16.06Q425.2-16.89 426-17.77 426.81-18.65 428.05-19.46 429.3-20.26 430.71-20.8 432.13-21.34 433.4-21.53L433.4-21.53Q437.21-21.53 439.53-19.6 441.85-17.68 441.9-14.5L441.9-14.5 441.75-6.79Q441.75-5.71 441.82-4.86 441.9-4 442.09-3.56L442.09-3.56 445.22-2.98 445.22-1.32 442.58-0.24Q441.85 0.05 441.21 0.22 440.58 0.39 440.09 0.39L440.09 0.39Q438.43 0.39 437.89-1.37L437.89-1.37 437.26-3.42 438.09-3.32Q436.52-1.51 434.99-0.56 433.45 0.39 431.93 0.39ZM433.64-2.98L433.64-2.98Q434.62-2.98 435.5-3.42 436.38-3.86 437.16-4.74L437.16-4.74 437.16-9.77 432.37-8.59Q431.2-8.3 430.69-7.69 430.18-7.08 430.18-6.1L430.18-6.1Q430.18-4.88 431.2-3.93 432.23-2.98 433.64-2.98ZM462.3-4.64L463.28-3.37Q462.45-1.61 460.72-0.61 458.98 0.39 457.08 0.39L457.08 0.39Q453.95 0.39 451.95-1.46 449.95-3.32 449.95-7.03L449.95-7.03 450.1-18.41 446.68-18.41 446.68-19.63 453.61-25.63 454.78-25.63 454.69-19.63 454.59-7.71Q454.59-5.37 455.64-4.25 456.69-3.13 458.64-3.13L458.64-3.13Q459.72-3.13 460.64-3.54 461.57-3.96 462.3-4.64L462.3-4.64ZM461.86-18.41L452.54-18.41 452.54-21.09 461.86-21.09 461.86-18.41ZM475.53 0L464.16 0 464.01-1.95 467.28-2.69Q467.33-2.88 467.38-3.44 467.43-4 467.45-5.05 467.48-6.1 467.48-7.76L467.48-7.76 467.53-11.23Q467.53-13.04 467.43-14.53 467.33-16.02 467.14-16.99L467.14-16.99 463.86-17.68 463.86-19.48 471.48-21.44 472.41-20.7Q472.26-19.19 472.19-17.68 472.12-16.16 472.12-14.16L472.12-14.16 472.12-8.01Q472.12-6.01 472.19-4.54 472.26-3.08 472.41-2.69L472.41-2.69 475.68-1.95 475.53 0ZM469.87-26.46L469.87-26.46Q468.4-26.46 467.45-27.39 466.5-28.32 466.5-29.69L466.5-29.69Q466.5-31.01 467.45-31.96 468.4-32.91 469.87-32.91L469.87-32.91Q471.33-32.91 472.24-31.96 473.14-31.01 473.14-29.69L473.14-29.69Q473.14-28.32 472.24-27.39 471.33-26.46 469.87-26.46ZM489.3 0.39L489.3 0.39Q486.08 0.39 483.61-1 481.15-2.39 479.78-4.86 478.41-7.32 478.41-10.5L478.41-10.5Q478.41-13.87 479.95-16.33 481.49-18.8 484-20.17 486.52-21.53 489.5-21.53L489.5-21.53Q492.57-21.53 494.89-20.17 497.21-18.8 498.53-16.38 499.85-13.96 499.85-10.79L499.85-10.79Q499.85-7.67 498.43-5.13 497.02-2.59 494.62-1.1 492.23 0.39 489.3 0.39ZM489.79-2.15L489.79-2.15Q491.3-2.15 492.4-3.08 493.5-4 494.11-5.71 494.72-7.42 494.72-9.62L494.72-9.62Q494.72-13.87 493.11-16.48 491.5-19.09 488.86-19.09L488.86-19.09Q486.52-19.09 485.08-16.99 483.64-14.89 483.64-11.43L483.64-11.43Q483.64-8.74 484.42-6.64 485.2-4.54 486.61-3.34 488.03-2.15 489.79-2.15ZM513.91 0L503.07 0 502.92-1.9 505.95-2.69Q506-2.93 506.05-3.54 506.09-4.15 506.12-5.18 506.14-6.2 506.14-7.76L506.14-7.76 506.19-11.52Q506.19-13.13 506.09-14.58 506-16.02 505.8-16.99L505.8-16.99 502.68-17.68 502.68-19.48 509.9-21.44 510.93-20.65 510.64-17.97 510.78-17.92Q512.44-19.78 514.15-20.65 515.86-21.53 517.81-21.53L517.81-21.53Q519.72-21.53 521.33-20.58 522.94-19.63 523.94-17.72 524.94-15.82 524.94-12.94L524.94-12.94 524.94-7.71Q524.94-6.01 525.02-4.57 525.09-3.13 525.19-2.69L525.19-2.69 528.21-1.9 528.12 0 517.47 0 517.33-1.9 520.16-2.69Q520.26-3.08 520.3-3.74 520.35-4.39 520.38-5.35 520.4-6.3 520.4-7.47L520.4-7.47 520.4-12.35Q520.4-14.4 519.72-15.65 519.03-16.89 517.98-17.46 516.93-18.02 515.76-18.02L515.76-18.02Q514.25-18.02 512.98-17.31 511.71-16.6 510.78-15.33L510.78-15.33 510.78-8.01Q510.78-5.96 510.86-4.54 510.93-3.13 511.03-2.69L511.03-2.69 514.05-1.9 513.91 0Z" opacity="1" transform="matrix(1,0,0,1,0,0)" fill="#f9e17e" class="slogan-text-1" data-fill-palette-color="quaternary" id="text-1"></path></svg></g></svg></g></svg></g></svg></g><g><svg viewBox="0 0 88.21136910809454 88.21136910809454" height="88.21136910809454" width="88.21136910809454"><g><svg></svg></g><g id="icon-0"><svg viewBox="0 0 88.21136910809454 88.21136910809454" height="88.21136910809454" width="88.21136910809454"><g><rect width="80.20700413347114" height="80.20700413347114" x="4.0021824873117" y="4.0021824873117" fill="#454545" data-fill-palette-color="accent"></rect><rect width="80.20700413347114" height="80.20700413347114" x="8.004364974623396" y="3.552713678800501e-15" fill="#454545" opacity="0.5" data-fill-palette-color="accent"></rect></g><g transform="matrix(1,0,0,1,15.64571964592184,11.43480710660485)"><svg viewBox="0 0 56.919929816250864 65.34175489488484" height="65.34175489488484" width="56.919929816250864"><g><svg xmlns="http://www.w3.org/2000/svg" xmlns:xlink="http://www.w3.org/1999/xlink" version="1.1" x="0" y="0" viewBox="10.100000381469727 5.199999809265137 78.4000015258789 90" enable-background="new 0 0 100 100" xml:space="preserve" height="65.34175489488484" width="56.919929816250864" class="icon-s-0" data-fill-palette-color="background" id="s-0"><polygon fill-rule="evenodd" clip-rule="evenodd" fill="#f9e17e" points="88.5,28.2 68.4,59.9 68.5,22.3 " data-fill-palette-color="background"></polygon><polygon fill-rule="evenodd" clip-rule="evenodd" fill="#f9e17e" points="49.8,5.2 67.2,38.5 34.7,19.6 " data-fill-palette-color="background"></polygon><polygon fill-rule="evenodd" clip-rule="evenodd" fill="#f9e17e" points="67.8,38.3 67.8,22.3 60.8,24.5 " data-fill-palette-color="background"></polygon><polygon fill-rule="evenodd" clip-rule="evenodd" fill="#f9e17e" points="88.2,73.2 50.6,71.7 83.2,52.9 " data-fill-palette-color="background"></polygon><polygon fill-rule="evenodd" clip-rule="evenodd" fill="#f9e17e" points="69.1,60.3 82.8,52.3 77.4,47.4 " data-fill-palette-color="background"></polygon><polygon fill-rule="evenodd" clip-rule="evenodd" fill="#f9e17e" points="48.7,95.2 31.5,61.9 63.9,80.9 " data-fill-palette-color="background"></polygon><polygon fill-rule="evenodd" clip-rule="evenodd" fill="#f9e17e" points="50.5,72.2 64.2,80.2 65.8,73.1 " data-fill-palette-color="background"></polygon><polygon fill-rule="evenodd" clip-rule="evenodd" fill="#f9e17e" points="10.1,72 30.5,40.4 30.1,78 " data-fill-palette-color="background"></polygon><polygon fill-rule="evenodd" clip-rule="evenodd" fill="#f9e17e" points="30.9,62.1 30.8,78 37.8,75.8 " data-fill-palette-color="background"></polygon><polygon fill-rule="evenodd" clip-rule="evenodd" fill="#f9e17e" points="11,27 48.5,28.9 15.8,47.3 " data-fill-palette-color="background"></polygon><polygon fill-rule="evenodd" clip-rule="evenodd" fill="#f9e17e" points="30,40.1 16.1,47.9 21.5,52.9 " data-fill-palette-color="background"></polygon><polygon fill-rule="evenodd" clip-rule="evenodd" fill="#f9e17e" points="48.2,28.3 34.5,20.2 32.9,27.4 " data-fill-palette-color="background"></polygon></svg></g></svg></g></svg></g></svg></g></svg></g></svg></g></svg></g><defs></defs></svg><rect width="320" height="360" fill="none" stroke="none" visibility="hidden"></rect></g></svg></g></svg>